<?xml version="1.0" standalone="no"?><!DOCTYPE svg PUBLIC "-//W3C//DTD SVG 1.1//EN" "http://www.w3.org/Graphics/SVG/1.1/DTD/svg11.dtd"><svg t="1657343361464" class="icon" viewBox="0 0 1024 1024" version="1.1" xmlns="http://www.w3.org/2000/svg" p-id="3939" xmlns:xlink="http://www.w3.org/1999/xlink" width="200" height="200"><defs><style type="text/css">@font-face { font-family: feedback-iconfont; src: url("//at.alicdn.com/t/font_1031158_u69w8yhxdu.woff2?t=1630033759944") format("woff2"), url("//at.alicdn.com/t/font_1031158_u69w8yhxdu.woff?t=1630033759944") format("woff"), url("//at.alicdn.com/t/font_1031158_u69w8yhxdu.ttf?t=1630033759944") format("truetype"); }
</style></defs><path d="M65.1 892.4c0 9.2 3.3 18 9.2 24.4 5.9 6.5 13.9 10.1 22.3 10.1h199.8c17.4 0 31.6-15.5 31.6-34.6V720.9H65.1v171.5zM296.5 99H96.7c-17.4 0-31.6 15.5-31.6 34.5v529.7H328V133.6c0.1-19.1-14.1-34.6-31.5-34.6zM196.1 362.5c-29.4 0-53.3-23.8-53.3-53.3s23.8-53.3 53.3-53.3 53.3 23.8 53.3 53.3-23.9 53.3-53.3 53.3zM381 892.4c0 9.2 3.3 18 9.2 24.4 5.9 6.5 13.9 10.1 22.3 10.1h199.8c17.4 0 31.6-15.5 31.6-34.6V720.9H381v171.5zM612.4 99H412.6c-17.4 0-31.6 15.5-31.6 34.5v529.7h263V133.6c0-19.1-14.2-34.6-31.6-34.6zM512 362.5c-29.4 0-53.3-23.8-53.3-53.3S482.6 256 512 256s53.3 23.8 53.3 53.3-23.9 53.2-53.3 53.2z" p-id="3940"></path><path d="M696.9 892.4c0 9.2 3.3 18 9.2 24.4 5.9 6.5 13.9 10.1 22.3 10.1h199.8c17.4 0 31.6-15.5 31.6-34.6V720.9H696.9v171.5zM928.3 99H728.5c-17.4 0-31.6 15.5-31.6 34.5v529.7h262.9V133.6c0.1-19.1-14-34.6-31.5-34.6zM827.9 362.5c-29.4 0-53.3-23.8-53.3-53.3s23.8-53.3 53.3-53.3 53.3 23.8 53.3 53.3-23.9 53.3-53.3 53.3z" p-id="3941"></path></svg>