<?xml version="1.0" standalone="no"?><!DOCTYPE svg PUBLIC "-//W3C//DTD SVG 1.1//EN" "http://www.w3.org/Graphics/SVG/1.1/DTD/svg11.dtd"><svg t="1657343460733" class="icon" viewBox="0 0 1024 1024" version="1.1" xmlns="http://www.w3.org/2000/svg" p-id="4882" xmlns:xlink="http://www.w3.org/1999/xlink" width="200" height="200"><defs><style type="text/css">@font-face { font-family: feedback-iconfont; src: url("//at.alicdn.com/t/font_1031158_u69w8yhxdu.woff2?t=1630033759944") format("woff2"), url("//at.alicdn.com/t/font_1031158_u69w8yhxdu.woff?t=1630033759944") format("woff"), url("//at.alicdn.com/t/font_1031158_u69w8yhxdu.ttf?t=1630033759944") format("truetype"); }
</style></defs><path d="M881.85 243.36L507.65 78.03c-13.33-5.89-28.62-5.87-41.93 0.06L94.55 243.4c-16.16 7.2-24.88 24.26-21.22 41.48 1.52 7.14 4.96 13.38 9.72 18.26v218.62c0 17.67 14.33 32 32 32 8.21 0 15.7-3.1 21.37-8.19 6.52-5.86 10.63-14.36 10.63-23.81V290.09l339.72-151.31 341.11 150.71v616.47l-339.36-0.28h-0.03c-8.21 0-15.71 3.1-21.37 8.19-6.52 5.85-10.62 14.34-10.63 23.78-0.02 17.68 14.3 32.02 31.97 32.03l366.13 0.3h0.03c9.7 0 18.89-3.69 25.87-10.39 7.24-6.95 11.39-16.67 11.39-26.67V304.66c5.59-5.08 9.63-11.91 11.3-19.83 3.65-17.26-5.12-34.31-21.33-41.47z" p-id="4883"></path><path d="M337.36 418.78h79.69v-32.26h-79.69v-52.11h86.72v-32.27H300.41v210.39h129.53v-32.26h-92.58zM547.67 512.53h33.44V302.14h-45.45l-22.83 117.28L490 302.14h-45.45v210.39h33.43V403.97l21.36 108.56h26.98l21.35-108.56zM661.66 514.88c20.74 0 37.46-5.77 49.7-17.16 12.33-11.49 18.58-27.12 18.58-46.43 0-13.76-5.2-26.16-15.46-36.86-9.82-10.22-23.8-19.09-41.63-26.39-21.33-8.34-28.85-13.7-31.41-16.74-3.54-4.17-5.26-9.05-5.26-14.93 0-7.2 2.16-12.71 6.61-16.85 4.54-4.23 10.71-6.28 18.86-6.28 8.6 0 14.98 2.82 19.49 8.61 4.7 6.05 6.66 12.57 6 19.93l-0.49 5.45h37.42v-5c0-15.06-4.86-29.27-14.46-42.24-9.95-13.39-26.08-20.18-47.96-20.18-16.82 0-31.55 5.56-43.77 16.51-12.38 11.1-18.65 25.76-18.65 43.57 0 13 4.61 24.41 13.69 33.92 8.78 9.21 22.59 17.27 42.22 24.64 12.61 5.21 22.33 10.98 28.87 17.15 6.04 5.71 8.98 11.62 8.98 18.05 0 8.2-2.46 14.98-7.54 20.72-4.84 5.49-12.84 8.27-23.79 8.27-8.2 0-15.16-2.65-21.29-8.11-5.97-5.3-8.87-12.89-8.87-23.21v-12.03h-36.95v13.2c0 17.72 6.01 32.71 17.87 44.55 11.84 11.82 28.4 17.84 49.24 17.84zM389.85 765.96c6.52-10.04 3.68-23.46-6.36-29.99l-131.44-85.42c-10.04-6.52-23.46-3.68-29.98 6.36s-3.68 23.46 6.36 29.99l70.61 45.89H89.67C77.7 732.79 68 742.5 68 754.46s9.71 21.67 21.67 21.67H298.8l-29.65 19.65-41.05 27.19c-9.98 6.61-12.71 20.06-6.1 30.04 4.17 6.29 11.07 9.71 18.09 9.71 4.11 0 8.27-1.16 11.95-3.6l46.38-30.73 82.36-54.58a21.51 21.51 0 0 0 9.07-7.85z" p-id="4884"></path></svg>