<?xml version="1.0" standalone="no"?><!DOCTYPE svg PUBLIC "-//W3C//DTD SVG 1.1//EN" "http://www.w3.org/Graphics/SVG/1.1/DTD/svg11.dtd"><svg t="1657551252214" class="icon" viewBox="0 0 1024 1024" version="1.1" xmlns="http://www.w3.org/2000/svg" p-id="1789" xmlns:xlink="http://www.w3.org/1999/xlink" width="200" height="200"><defs><style type="text/css">@font-face { font-family: feedback-iconfont; src: url("//at.alicdn.com/t/font_1031158_u69w8yhxdu.woff2?t=1630033759944") format("woff2"), url("//at.alicdn.com/t/font_1031158_u69w8yhxdu.woff?t=1630033759944") format("woff"), url("//at.alicdn.com/t/font_1031158_u69w8yhxdu.ttf?t=1630033759944") format("truetype"); }
</style></defs><path d="M576.3 437.5c-8.7-8.7-22.9-8.7-31.7 0-8.7 8.7-8.7 22.9 0 31.7l47.5 47.5c4.4 4.4 10.1 6.6 15.9 6.6 5.8 0 11.5-2.2 15.9-6.5l79.2-79.2c8.7-8.7 8.7-23 0-31.7s-23-8.7-31.7 0L608 469.2l-31.7-31.7z" fill="#000000" p-id="1790"></path><path d="M915.2 758.4v134.4c0 12.4-10 22.4-22.4 22.4H131.2c-12.4 0-22.4-10-22.4-22.4V494.6c0-8.9 9.9-14.2 17.3-9.4l72.3 47 44.8 29.1 256.6 166.8c7.4 4.8 17 4.8 24.4 0l256.6-166.8 44.8-29.1 72.3-47c7.5-4.8 17.3 0.5 17.3 9.4v84.6c0 12.4 10 22.4 22.4 22.4 12.4 0 22.4-10 22.4-22.4v-96.6c0-35.5-39.4-56.9-69.2-37.6l-65.2 42.4V108.8c0-24.7-20.1-44.8-44.8-44.8H243.2c-24.7 0-44.8 20.1-44.8 44.8v378.6L133.2 445c-29.8-19.4-69.2 2-69.2 37.6v432.6c0 24.7 20.1 44.8 44.8 44.8h806.4c24.7 0 44.8-20.1 44.8-44.8V758.4c0-12.4-10-22.4-22.4-22.4-12.4 0-22.4 10-22.4 22.4z m-672-627.2c0-12.4 10-22.4 22.4-22.4h492.8c12.4 0 22.4 10 22.4 22.4v385.3L512 691.2 243.2 516.5V131.2z" fill="#000000" p-id="1791"></path><path d="M620 288c0-61.9-50.1-112-112-112s-112 50.1-112 112c0 33.7 15.2 63.5 38.6 84-48.7 23.7-84.3 70.2-92.7 125.7-2 13.4 8.8 25.5 22.3 25.5 11.1 0 20.3-8.1 22-19.1 9.2-59 60.2-104.1 121.7-104.1 62 0 112.1-50.1 112.1-112z m-112 67.2c-37.1 0-67.2-30.1-67.2-67.2s30.1-67.2 67.2-67.2 67.2 30.1 67.2 67.2-30.1 67.2-67.2 67.2z" fill="#000000" p-id="1792"></path></svg>