<?xml version="1.0" standalone="no"?><!DOCTYPE svg PUBLIC "-//W3C//DTD SVG 1.1//EN" "http://www.w3.org/Graphics/SVG/1.1/DTD/svg11.dtd"><svg t="1657343599283" class="icon" viewBox="0 0 1024 1024" version="1.1" xmlns="http://www.w3.org/2000/svg" p-id="9651" xmlns:xlink="http://www.w3.org/1999/xlink" width="200" height="200"><defs><style type="text/css">@font-face { font-family: feedback-iconfont; src: url("//at.alicdn.com/t/font_1031158_u69w8yhxdu.woff2?t=1630033759944") format("woff2"), url("//at.alicdn.com/t/font_1031158_u69w8yhxdu.woff?t=1630033759944") format("woff"), url("//at.alicdn.com/t/font_1031158_u69w8yhxdu.ttf?t=1630033759944") format("truetype"); }
</style></defs><path d="M839.68 174.08H184.32c-39.58784 0-71.68 32.09216-71.68 71.68v102.4c0 39.58784 32.09216 71.68 71.68 71.68h655.36c39.58784 0 71.68-32.09216 71.68-71.68V245.76c0-39.58784-32.09216-71.68-71.68-71.68zM184.32 235.52h655.36a10.24 10.24 0 0 1 10.24 10.24v102.4a10.24 10.24 0 0 1-10.24 10.24H184.32a10.24 10.24 0 0 1-10.24-10.24V245.76a10.24 10.24 0 0 1 10.24-10.24z" fill="#000000" p-id="9652"></path><path d="M814.08 358.4a30.72 30.72 0 0 1 30.69952 29.568L844.8 389.12v389.12c0 39.05024-31.232 70.8096-70.07744 71.66464L773.12 849.92H250.88c-39.05536 0-70.8096-31.232-71.66464-70.07744L179.2 778.24V389.12a30.72 30.72 0 0 1 61.41952-1.152L240.64 389.12v389.12a10.24 10.24 0 0 0 9.472 10.2144L250.88 788.48h522.24a10.24 10.24 0 0 0 10.2144-9.472L783.36 778.24V389.12a30.72 30.72 0 0 1 30.72-30.72z" fill="#000000" p-id="9653"></path><path d="M604.16 512a30.72 30.72 0 0 1 1.152 61.41952L604.16 573.44H419.84a30.72 30.72 0 0 1-1.152-61.41952L419.84 512h184.32z" fill="#000000" p-id="9654"></path></svg>