<?xml version="1.0" standalone="no"?><!DOCTYPE svg PUBLIC "-//W3C//DTD SVG 1.1//EN" "http://www.w3.org/Graphics/SVG/1.1/DTD/svg11.dtd"><svg t="1658076595814" class="icon" viewBox="0 0 1024 1024" version="1.1" xmlns="http://www.w3.org/2000/svg" p-id="4330" xmlns:xlink="http://www.w3.org/1999/xlink" width="200" height="200"><defs><style type="text/css">@font-face { font-family: feedback-iconfont; src: url("//at.alicdn.com/t/font_1031158_u69w8yhxdu.woff2?t=1630033759944") format("woff2"), url("//at.alicdn.com/t/font_1031158_u69w8yhxdu.woff?t=1630033759944") format("woff"), url("//at.alicdn.com/t/font_1031158_u69w8yhxdu.ttf?t=1630033759944") format("truetype"); }
</style></defs><path d="M642.7 495.3L469.9 667.4l-88.6-88.2c-9.2-9.2-24.2-9.1-33.3 0.1s-9.1 24.2 0.1 33.3l105.3 104.8c4.6 4.6 10.6 6.9 16.6 6.9 6 0 12-2.3 16.6-6.9L676 528.7c9.2-9.2 9.3-24.1 0.1-33.3-9.2-9.3-24.2-9.3-33.4-0.1z" fill="#333333" p-id="4331"></path><path d="M959.4 170.3C953.6 109 898.6 64 837 64H187c-61.6 0-116.6 45-122.4 106.3-6.7 70.3 48.4 129.5 117.3 129.5v613.1c0 26 21.1 47.2 47.2 47.2H795c26 0 47.2-21.1 47.2-47.2V582.7c0-13-10.6-23.6-23.6-23.6S795 569.7 795 582.7v330.1H229.1v-613H795v117.9c0 13 10.6 23.6 23.6 23.6s23.6-10.6 23.6-23.6V299.8c68.8 0 124-59.2 117.2-129.5z m-117.3 82.3H181.9c-39 0-70.7-31.7-70.7-70.7s31.7-70.7 70.7-70.7h660.2c39 0 70.7 31.7 70.7 70.7s-31.7 70.7-70.7 70.7z" fill="#333333" p-id="4332"></path></svg>