<?xml version="1.0" standalone="no"?><!DOCTYPE svg PUBLIC "-//W3C//DTD SVG 1.1//EN" "http://www.w3.org/Graphics/SVG/1.1/DTD/svg11.dtd"><svg t="1658076622607" class="icon" viewBox="0 0 1024 1024" version="1.1" xmlns="http://www.w3.org/2000/svg" p-id="4621" xmlns:xlink="http://www.w3.org/1999/xlink" width="200" height="200"><defs><style type="text/css">@font-face { font-family: feedback-iconfont; src: url("//at.alicdn.com/t/font_1031158_u69w8yhxdu.woff2?t=1630033759944") format("woff2"), url("//at.alicdn.com/t/font_1031158_u69w8yhxdu.woff?t=1630033759944") format("woff"), url("//at.alicdn.com/t/font_1031158_u69w8yhxdu.ttf?t=1630033759944") format("truetype"); }
</style></defs><path d="M234.650773 170.666667a42.666667 42.666667 0 0 1 0 85.333333H149.146773A42.666667 42.666667 0 0 0 106.650773 298.709333V640h298.624A85.290667 85.290667 0 0 1 490.650773 725.333333v213.333334h213.504a42.666667 42.666667 0 0 0 42.389334-39.509334l0.106666-3.2V682.666667a42.666667 42.666667 0 0 1 85.333334 0v213.333333a128 128 0 0 1-128 128H448.112107c-23.658667 0-57.898667-11.733333-76.544-26.24L55.066773 751.573333C36.378773 737.066667 21.31744 706.346667 21.31744 682.88V298.666667a128 128 0 0 1 128-128z m405.333334-170.666667c153.173333 0 277.333333 124.16 277.333333 277.333333 0 61.290667-19.882667 117.930667-53.546667 163.84l126.378667 126.378667c15.744 15.744 16.704 40.597333 2.602667 57.344l-2.496 2.709333a42.453333 42.453333 0 0 1-60.053334-0.106666L803.824107 501.12A276.096 276.096 0 0 1 639.984107 554.666667c-153.173333 0-277.333333-124.16-277.333334-277.333334S486.810773 0 639.984107 0zM319.984107 426.666667c22.506667 0 40.917333 17.258667 42.56 39.466666L362.650773 469.333333c0 23.573333-18.922667 42.666667-42.666666 42.666667H191.984107c-23.573333 0-42.666667-18.944-42.666667-42.666667 0-23.573333 18.922667-42.666667 42.666667-42.666666h128zM639.984107 85.333333a192 192 0 1 0 0 384 192 192 0 0 0 0-384z" fill="#F44B34" p-id="4622"></path></svg>